<?xml version="1.0" encoding="iso-8859-1"?>
<!-- Generator: Adobe Illustrator 19.0.0, SVG Export Plug-In . SVG Version: 6.00 Build 0)  -->
<svg version="1.1" id="Capa_1" xmlns="http://www.w3.org/2000/svg" xmlns:xlink="http://www.w3.org/1999/xlink" x="0px" y="0px"
	 viewBox="0 0 512 512" style="enable-background:new 0 0 512 512;" xml:space="preserve">
<path style="fill:#FFDC64;" d="M505.569,192.467l-161.631-32.612L262.976,16.213c-3.063-5.435-10.89-5.435-13.953,0l-80.962,143.642
	L6.431,192.467c-6.115,1.234-8.533,8.677-4.311,13.27l111.593,121.388l-18.93,163.797c-0.716,6.198,5.615,10.797,11.288,8.201
	L256,430.502l149.93,68.62c5.672,2.596,12.004-2.004,11.288-8.201l-18.93-163.797l111.593-121.388
	C514.102,201.143,511.684,193.7,505.569,192.467z"/>
<path style="fill:#FFC850;" d="M363.355,375.492c-117.583,0-213.036-94.532-214.635-211.735L6.431,192.467
	c-6.115,1.234-8.533,8.677-4.311,13.27l111.593,121.388l-18.93,163.797c-0.716,6.198,5.615,10.797,11.288,8.201L256,430.502
	l149.93,68.62c5.672,2.596,12.004-2.004,11.288-8.201L403.44,371.698C390.448,374.153,377.061,375.492,363.355,375.492z"/>
<g>
	<path style="fill:#FFF8DC;" d="M282.839,228.08c0-5.702-4.621-10.323-10.323-10.323H256c-5.702,0-10.323,4.621-10.323,10.323
		c0,4.969,3.582,8.922,8.258,9.906v95.801c-4.676,0.984-8.258,4.936-8.258,9.906c0,5.702,4.621,10.323,10.323,10.323h16.516
		c5.702,0,10.323-4.621,10.323-10.323c0-4.969-3.582-8.922-8.258-9.906v-95.801C279.257,237.002,282.839,233.05,282.839,228.08z"/>
	<path style="fill:#FFF8DC;" d="M231.226,217.758H214.71c-5.702,0-10.323,4.621-10.323,10.323c0,3.846,2.196,7.069,5.315,8.845
		l-27.275,95.462c-0.347,1.194-0.968,1.863-1.5-0.008l-27.275-95.454c3.119-1.776,5.315-4.998,5.315-8.844
		c0-5.702-4.621-10.323-10.323-10.323h-16.516c-5.702,0-10.323,4.621-10.323,10.323s4.621,10.323,10.323,10.323h0.469l28.474,99.645
		c2.677,9.403,11.137,15.968,20.629,15.968c9.444,0,17.903-6.565,20.581-15.96l28.474-99.653h0.469
		c5.702,0,10.323-4.621,10.323-10.323S236.927,217.758,231.226,217.758z"/>
	<path style="fill:#FFF8DC;" d="M338.581,217.758h-33.032c-5.702,0-10.323,4.621-10.323,10.323c0,4.969,3.582,8.922,8.258,9.906
		v95.801c-4.676,0.984-8.258,4.936-8.258,9.906c0,5.702,4.621,10.323,10.323,10.323h16.516c5.702,0,10.323-4.621,10.323-10.323
		c0-4.969-3.582-8.922-8.258-9.906v-12.804h14.452c28.46,0,51.613-23.153,51.613-51.613S367.04,217.758,338.581,217.758z
		 M338.581,300.339h-14.452v-61.936h14.452c17.073,0,30.968,13.895,30.968,30.968C369.548,286.443,355.653,300.339,338.581,300.339z
		"/>
</g>
<g>
	<path style="fill:#FFF082;" d="M132.129,217.758c-5.702,0-10.323,4.621-10.323,10.323s4.621,10.323,10.323,10.323h0.469
		l28.474,99.645c2.677,9.403,11.137,15.968,20.629,15.968c9.444,0,17.903-6.565,20.581-15.96l7.741-27.091
		c-5.736-5.859-11.145-12.034-16.185-18.517l-11.411,39.939c-0.347,1.194-0.968,1.863-1.5-0.008l-27.275-95.454
		c3.119-1.776,5.315-4.998,5.315-8.844c0-5.702-4.621-10.323-10.323-10.323L132.129,217.758L132.129,217.758z"/>
	<path style="fill:#FFF082;" d="M269.727,354.016c-8.14-3.953-15.982-8.417-23.508-13.329c-0.304,0.953-0.542,1.941-0.542,3.006
		c0,5.702,4.621,10.323,10.323,10.323H269.727z"/>
</g>
<g>
</g>
<g>
</g>
<g>
</g>
<g>
</g>
<g>
</g>
<g>
</g>
<g>
</g>
<g>
</g>
<g>
</g>
<g>
</g>
<g>
</g>
<g>
</g>
<g>
</g>
<g>
</g>
<g>
</g>
</svg>
